<?xml version="1.0" standalone="no"?>
<!DOCTYPE svg PUBLIC "-//W3C//DTD SVG 20010904//EN"
 "http://www.w3.org/TR/2001/REC-SVG-20010904/DTD/svg10.dtd">
<svg version="1.0" xmlns="http://www.w3.org/2000/svg"
 width="400.000000pt" height="104.000000pt" viewBox="0 0 400.000000 104.000000"
 preserveAspectRatio="xMidYMid meet">
<metadata>
Created by potrace 1.15, written by Peter Selinger 2001-2017
</metadata>
<g transform="translate(0.000000,104.000000) scale(0.100000,-0.100000)"
fill="#000000" stroke="none">
<path d="M123 1026 c13 -34 18 -104 8 -110 -6 -4 -11 -18 -11 -30 0 -13 -7
-36 -14 -52 -8 -15 -13 -31 -10 -36 3 -4 0 -8 -6 -8 -7 0 -10 -6 -7 -14 3 -8
3 -17 0 -20 -4 -3 -8 -18 -9 -33 -2 -14 -8 -29 -15 -34 -6 -4 -10 -18 -7 -33
3 -14 2 -23 -2 -21 -9 6 -20 -30 -20 -67 0 -32 30 -54 48 -36 7 7 12 9 12 4 0
-4 12 1 28 12 15 11 37 22 49 26 31 10 133 109 133 130 0 10 7 25 16 33 11 12
12 18 4 23 -9 6 -9 9 1 13 14 5 9 8 -36 22 -26 8 -17 28 10 21 21 -5 25 -2 31
21 3 16 8 36 11 46 7 25 -18 75 -41 81 -16 4 -17 8 -7 20 10 11 9 19 -1 35
-11 18 -23 21 -91 21 -63 0 -78 -3 -74 -14z"/>
<path d="M566 978 c-10 -35 -18 -71 -17 -80 0 -10 -4 -20 -10 -23 -5 -4 -9
-19 -9 -36 0 -16 -4 -29 -10 -29 -5 0 -10 -7 -10 -15 0 -8 -6 -15 -12 -16 -7
0 2 -7 20 -15 35 -15 36 -36 2 -27 -23 6 -60 -22 -60 -44 0 -8 -4 -12 -9 -8
-9 5 -31 -53 -31 -81 0 -7 15 -14 33 -17 17 -3 41 -7 51 -9 17 -3 20 4 22 61
4 92 18 99 33 17 9 -47 28 -70 74 -88 13 -6 17 -4 14 5 -2 6 -10 11 -17 9 -7
-2 -10 3 -7 12 3 8 1 16 -5 18 -10 4 92 113 138 148 18 14 18 14 4 -4 -14 -18
-13 -18 8 -12 21 7 23 5 22 -16 -3 -37 -1 -45 15 -45 22 0 27 28 8 42 -10 8
-15 17 -10 21 4 4 18 -3 32 -16 18 -17 22 -27 14 -36 -6 -7 -8 -17 -5 -22 3
-5 -4 -21 -15 -36 -23 -30 -17 -55 9 -34 12 10 14 10 8 1 -4 -8 -2 -13 7 -13
18 0 39 -54 27 -66 -5 -5 -10 -16 -12 -24 -2 -8 -10 -21 -18 -28 -13 -11 -12
-12 6 -3 12 6 25 22 28 36 4 14 12 25 19 25 8 0 7 4 -3 11 -12 9 -10 10 8 6
19 -5 21 -3 11 9 -6 7 -15 12 -19 9 -4 -3 -8 1 -7 8 1 32 -4 48 -13 42 -12 -8
-13 25 -1 44 7 10 13 11 31 1 12 -6 25 -9 28 -5 8 8 -18 25 -41 25 -19 0 -37
36 -37 73 0 17 12 28 48 45 61 29 117 29 134 1 7 -11 27 -29 45 -40 24 -15 34
-30 39 -57 3 -20 8 -46 11 -57 10 -36 24 21 15 63 -6 25 -4 46 6 65 17 35 33
23 33 -24 0 -39 1 -114 2 -181 0 -26 4 -45 9 -42 10 6 46 75 46 89 1 23 19 12
41 -24 26 -42 82 -71 176 -91 27 -6 56 -16 63 -23 30 -25 59 -84 71 -145 7
-35 32 -123 57 -195 24 -72 44 -133 44 -134 0 -2 391 -3 870 -3 807 0 869 1
863 17 -5 12 -3 14 8 9 16 -9 -23 28 -67 62 l-29 22 43 -20 c23 -12 47 -18 52
-15 6 3 10 1 10 -4 0 -6 5 -11 10 -11 6 0 9 3 8 8 -4 20 15 60 27 56 8 -4 17
8 25 33 27 82 110 233 150 273 11 11 17 26 14 35 -4 8 -1 15 6 15 6 0 8 5 5
10 -3 6 -23 10 -43 10 -53 0 -149 49 -207 106 -27 27 -54 47 -59 46 -5 -2 -6
4 -2 13 3 9 -2 31 -11 48 -10 19 -16 57 -16 97 -1 54 4 74 28 119 16 29 36 56
45 59 20 7 50 33 50 44 0 4 -652 8 -1448 8 l-1448 0 -18 -62z m2514 -414 c0
-3 -5 -14 -10 -25 -9 -16 -7 -19 12 -20 13 -1 31 -1 41 0 12 2 17 -5 17 -21 1
-22 1 -22 12 -3 17 31 32 36 46 18 6 -9 12 -12 12 -5 0 7 11 12 25 12 16 0 25
-6 25 -15 0 -8 -7 -15 -15 -15 -8 0 -17 -11 -21 -25 -7 -29 -24 -34 -24 -7 -1
16 -2 16 -15 -2 -15 -19 -45 -16 -45 6 0 6 -7 3 -16 -8 -15 -18 -15 -17 -10
14 7 39 1 41 -18 4 -11 -21 -22 -28 -43 -27 -22 0 -27 4 -25 21 4 29 -27 27
-34 -3 -10 -37 -26 -27 -22 15 3 34 6 37 36 40 24 2 35 10 42 28 8 21 30 34
30 18z"/>
<path d="M3591 1026 c-7 -9 -9 -25 -4 -43 10 -40 5 -63 -23 -96 -28 -33 -30
-50 -9 -70 8 -8 12 -17 10 -19 -3 -3 6 -15 20 -28 14 -13 25 -31 25 -40 0 -26
49 -67 120 -101 38 -18 118 -19 188 -1 50 12 60 17 51 28 -9 11 -8 18 2 30 16
20 13 83 -6 105 -8 8 -15 32 -15 52 0 48 -24 71 -64 61 -63 -14 -116 1 -116
35 0 6 -4 11 -10 11 -14 0 -12 27 3 37 6 4 18 18 25 31 l12 22 -99 0 c-72 0
-102 -4 -110 -14z"/>
<path d="M3422 937 c-29 -31 -42 -70 -42 -125 0 -65 9 -93 28 -90 9 2 18 -5
20 -17 4 -17 2 -18 -12 -6 -9 7 -16 9 -16 4 0 -18 58 -90 93 -117 70 -53 219
-84 247 -51 19 23 5 41 -42 53 -24 6 -54 23 -67 36 -13 14 -28 23 -32 20 -5
-3 -9 -1 -9 4 0 4 -16 26 -35 47 -19 22 -39 51 -44 65 -5 14 -13 34 -17 45 -4
11 -6 23 -6 28 1 4 -2 7 -8 7 -5 0 -10 15 -10 34 0 18 -6 45 -13 60 l-14 26
-21 -23z"/>
<path d="M3930 538 c-109 -69 -157 -126 -184 -218 -12 -39 -13 -56 -5 -61 8
-4 9 -22 5 -53 -5 -30 -4 -46 3 -46 6 0 11 -6 11 -12 0 -44 105 -148 148 -148
19 0 48 45 34 54 -5 3 -9 35 -10 73 -2 52 4 86 24 143 19 54 27 103 31 181 3
58 2 108 -3 111 -5 3 -29 -8 -54 -24z"/>
<path d="M205 483 c-54 -7 -130 -43 -140 -66 -12 -24 0 -83 22 -109 7 -8 17
-48 23 -88 9 -66 20 -104 20 -71 0 8 6 11 16 7 8 -3 25 3 36 14 33 30 93 27
114 -6 16 -24 16 -28 -4 -70 -31 -62 -18 -94 38 -94 29 0 40 4 40 15 0 8 5 15
11 15 6 0 8 -7 4 -17 -5 -14 -3 -15 5 -6 9 8 9 20 -1 46 -15 43 3 162 32 215
11 18 19 46 19 61 0 15 6 36 14 46 13 18 11 21 -18 39 -17 11 -34 19 -38 18
-5 -1 -8 3 -8 9 0 5 -4 8 -10 4 -5 -3 -18 3 -30 15 -26 26 -40 26 -33 0 3 -11
1 -20 -4 -20 -15 0 -44 36 -36 43 6 7 -19 7 -72 0z"/>
<path d="M550 370 c0 -5 5 -10 11 -10 8 0 8 -4 0 -14 -10 -11 -8 -16 8 -21 11
-3 18 -12 15 -19 -3 -7 2 -20 10 -29 14 -14 9 -16 -55 -19 -38 -2 -75 2 -81 7
-8 7 -9 5 -5 -7 4 -11 1 -18 -6 -18 -7 0 -18 -9 -24 -19 -10 -15 -9 -20 2 -24
7 -3 15 -16 18 -29 2 -13 5 -5 6 20 l1 42 56 0 c56 0 87 -10 114 -38 14 -15
14 -20 -2 -51 -10 -19 -18 -42 -18 -50 0 -12 -3 -12 -12 -3 -7 7 -19 12 -27
12 -12 0 -9 -6 8 -19 21 -16 23 -22 13 -49 l-10 -30 128 -1 129 -2 -9 28 c-5
15 -18 60 -29 98 -20 71 -68 158 -82 149 -5 -2 -32 20 -62 51 -32 34 -62 55
-75 55 -12 0 -22 -4 -22 -10z"/>
<path d="M1 178 l-1 -178 24 0 c22 0 26 7 36 53 9 45 8 67 -9 138 -10 46 -26
102 -34 124 -15 38 -16 33 -16 -137z"/>
<path d="M3624 293 c-11 -15 -31 -50 -43 -78 -13 -27 -28 -58 -33 -68 -5 -11
-7 -21 -4 -24 2 -3 11 8 20 24 13 27 46 62 46 51 0 -3 -16 -36 -35 -73 -20
-37 -33 -70 -30 -74 3 -3 10 1 15 9 12 19 13 8 1 -23 -8 -20 -6 -27 5 -31 15
-6 174 -9 174 -3 0 1 -13 28 -30 60 -30 59 -42 146 -26 195 5 16 3 22 -7 22
-8 0 -18 9 -23 21 -9 20 -10 19 -30 -8z"/>
</g>
</svg>
